<?xml version="1.0" encoding="UTF-8" standalone="no"?>
<svg
   xmlns:dc="http://purl.org/dc/elements/1.1/"
   xmlns:cc="http://creativecommons.org/ns#"
   xmlns:rdf="http://www.w3.org/1999/02/22-rdf-syntax-ns#"
   xmlns:svg="http://www.w3.org/2000/svg"
   xmlns="http://www.w3.org/2000/svg"
   id="svg1580"
   version="1.1"
   viewBox="0 0 39.999997 39.999997">
  <defs
     id="defs1574" />
  <metadata
     id="metadata1577">
    <rdf:RDF>
      <cc:Work
         rdf:about="">
        <dc:format>image/svg+xml</dc:format>
        <dc:type
           rdf:resource="http://purl.org/dc/dcmitype/StillImage" />
        <dc:title></dc:title>
      </cc:Work>
    </rdf:RDF>
  </metadata>
  <g
     transform="translate(190.5945,-71.886164)"
     id="layer1">
    <g
       id="g1536"
       transform="translate(-306.31157,-78.66106)">
      <path
         style="color:#000000;clip-rule:nonzero;display:inline;overflow:visible;visibility:visible;opacity:1;isolation:auto;mix-blend-mode:normal;color-interpolation:sRGB;color-interpolation-filters:linearRGB;solid-color:#000000;solid-opacity:1;fill:#441279;fill-opacity:1;fill-rule:evenodd;stroke:none;stroke-width:1.05833328;stroke-linecap:butt;stroke-linejoin:miter;stroke-miterlimit:4;stroke-dasharray:none;stroke-dashoffset:0;stroke-opacity:1;color-rendering:auto;image-rendering:auto;shape-rendering:auto;text-rendering:auto;enable-background:accumulate"
         d="m 120.47991,171.79538 c 0,0.91319 0.54169,1.73938 1.41741,1.79539 0.87572,0.056 1.41741,-0.65946 1.41741,-1.98437 0,-1.32491 -0.62168,-6.48979 0.66146,-9.16592 1.28314,-2.67613 2.91281,-3.75056 5.48066,-3.68528 2.56785,0.0653 2.98148,0.50893 4.15774,3.11831 1.17626,2.60938 0.47247,9.09453 0.47247,10.20535 0,1.11082 0.69318,1.83177 1.51189,1.7009 0.81871,-0.13087 1.51191,-0.84324 1.51191,-2.07887 0,-1.23563 -0.45542,-7.10772 0.85045,-9.73289 1.30587,-2.62517 2.89087,-3.17342 5.19717,-3.21279 2.3063,-0.0394 3.77642,1.49147 4.72469,3.21279 0.94828,1.72132 0.66147,8.80055 0.66147,10.20536 0,1.40481 0.77153,1.64725 1.5119,1.5119 0.74037,-0.13535 0.89769,-0.0691 0.89769,-1.41741 v -10.58332 c 0,-1.22879 -2.91496,-5.63258 -7.79575,-5.66965 -4.88078,-0.0371 -5.73474,3.10362 -7.27604,3.02381 -1.5413,-0.0798 -2.47438,-2.90222 -6.61458,-2.83483 -4.1402,0.0674 -5.06151,2.43082 -5.66965,2.26787 -0.60814,-0.16295 -0.84568,-1.79243 -1.79538,-1.7009 -0.9497,0.0915 -1.32292,1.44574 -1.32292,2.64583 z"
         id="path1532" />
      <path
         style="color:#000000;clip-rule:nonzero;display:inline;overflow:visible;visibility:visible;opacity:1;isolation:auto;mix-blend-mode:normal;color-interpolation:sRGB;color-interpolation-filters:linearRGB;solid-color:#000000;solid-opacity:1;fill:#441279;fill-opacity:1;fill-rule:evenodd;stroke:none;stroke-width:1.05833328;stroke-linecap:butt;stroke-linejoin:miter;stroke-miterlimit:4;stroke-dasharray:none;stroke-dashoffset:0;stroke-opacity:1;color-rendering:auto;image-rendering:auto;shape-rendering:auto;text-rendering:auto;enable-background:accumulate"
         d="m 129.26786,179.82738 c 0,1.7069 -0.18899,3.75498 -0.18899,4.47902 0,0.72404 0.34959,0.69631 0.75595,0.75595 0.40636,0.0596 1.22842,-0.003 1.22842,-0.66146 0,-0.65871 -0.22525,-3.29226 0.28348,-4.29003 0.50873,-0.99777 0.84185,-1.23644 1.6064,-1.32292 0.76455,-0.0865 1.28684,0.25268 1.88988,1.22842 0.60304,0.97574 0.37798,3.51285 0.37798,4.25224 0,0.73939 0.48144,0.74384 0.85045,0.75595 0.36901,0.0121 0.85044,-0.0121 0.85044,-0.66146 0,-0.64936 -0.4827,-3.36301 0.18899,-4.44122 0.67169,-1.07821 1.32692,-1.66576 2.11667,-1.5119 0.78975,0.15386 1.34168,0.35868 1.66309,1.32291 0.32141,0.96423 -0.0945,3.57988 -0.0945,4.34673 0,0.76685 0.57947,0.80995 1.03943,0.75595 0.45996,-0.054 0.75595,0.0434 0.75595,-0.94494 0,-0.98833 -0.18898,-2.7423 -0.18898,-4.15774 0,-1.41543 -2.24,-2.85543 -3.45849,-2.83482 -1.21849,0.0206 -2.14895,1.88988 -3.0616,1.88988 -0.91265,0 -1.58494,-1.23792 -2.74033,-1.41741 -1.15539,-0.17949 -3.87425,0.74994 -3.87425,2.45685 z"
         id="path1534" />
    </g>
  </g>
</svg>
